<svg width="1024" height="1024" viewBox="0 0 1024 1024" fill="none" xmlns="http://www.w3.org/2000/svg">
<g clip-path="url(#clip0_2018_122)">
<rect width="1024" height="1024" fill="url(#paint0_linear_2018_122)"/>
<path opacity="0.35" d="M512 -127C856.989 -127 1151 167.011 1151 512C1151 856.989 856.989 1151 512 1151C167.011 1151 -127 856.989 -127 512C-127 167.011 167.011 -127 512 -127Z" fill="black" fill-opacity="0.01" stroke="url(#paint1_linear_2018_122)" stroke-width="322" stroke-linecap="round"/>
<path d="M312 312C445.333 178.667 578.667 178.667 712 312C845.333 445.333 845.333 578.667 712 712C578.667 845.333 445.333 845.333 312 712C178.667 578.667 178.667 445.333 312 312Z" stroke="url(#paint2_linear_2018_122)" stroke-width="160" stroke-linecap="round"/>
<path d="M255.333 255.333C426.444 84.2222 597.556 84.2222 768.667 255.333C939.778 426.444 939.778 597.556 768.667 768.667C597.556 939.778 426.444 939.778 255.333 768.667C84.2222 597.556 84.2222 426.444 255.333 255.333Z" fill="black" fill-opacity="0.01"/>
<path d="M648 485.474V537.901C648 543.463 645.791 548.797 641.858 552.73C637.925 556.663 632.591 558.873 627.029 558.873H558.873V627.029C558.873 632.591 556.663 637.925 552.73 641.858C548.797 645.791 543.463 648 537.901 648H485.474C479.912 648 474.578 645.791 470.645 641.858C466.712 637.925 464.502 632.591 464.502 627.029V558.873H396.346C390.784 558.873 385.45 556.663 381.517 552.73C377.584 548.797 375.375 543.463 375.375 537.901V485.474C375.375 479.912 377.584 474.578 381.517 470.645C385.45 466.712 390.784 464.502 396.346 464.502H464.502V396.346C464.502 390.784 466.712 385.45 470.645 381.517C474.578 377.584 479.912 375.375 485.474 375.375H537.901C543.463 375.375 548.797 377.584 552.73 381.517C556.663 385.45 558.873 390.784 558.873 396.346V464.502H627.029C632.591 464.502 637.925 466.712 641.858 470.645C645.791 474.578 648 479.912 648 485.474Z" fill="url(#paint3_radial_2018_122)"/>
<path d="M648.375 485.401V537.974C648.375 543.551 646.159 548.9 642.216 552.843C638.272 556.787 632.923 559.002 627.346 559.002H559.002V627.346C559.002 632.923 556.787 638.272 552.843 642.216C548.9 646.159 543.551 648.375 537.974 648.375H485.401C479.824 648.375 474.475 646.159 470.532 642.216C466.588 638.272 464.373 632.923 464.373 627.346V559.002H396.029C390.452 559.002 385.103 556.787 381.159 552.843C377.216 548.9 375 543.551 375 537.974V485.401C375 479.824 377.216 474.475 381.159 470.532C385.103 466.588 390.452 464.373 396.029 464.373H464.373V396.029C464.373 390.452 466.588 385.103 470.532 381.159C474.475 377.216 479.824 375 485.401 375H537.974C543.551 375 548.9 377.216 552.843 381.159C556.787 385.103 559.002 390.452 559.002 396.029V464.373H627.346C632.923 464.373 638.272 466.588 642.216 470.532C646.159 474.475 648.375 479.824 648.375 485.401Z" fill="black" fill-opacity="0.01"/>
</g>
<defs>
<linearGradient id="paint0_linear_2018_122" x1="512" y1="0" x2="512" y2="1024" gradientUnits="userSpaceOnUse">
<stop stop-color="#4F8FB8"/>
<stop offset="1" stop-color="#135481"/>
</linearGradient>
<linearGradient id="paint1_linear_2018_122" x1="34" y1="34" x2="990" y2="990" gradientUnits="userSpaceOnUse">
<stop stop-color="#96D4F5"/>
<stop offset="1" stop-color="#4F8FB8"/>
</linearGradient>
<linearGradient id="paint2_linear_2018_122" x1="212" y1="212" x2="812" y2="812" gradientUnits="userSpaceOnUse">
<stop stop-color="#96D4F5"/>
<stop offset="1" stop-color="#4F8FB8"/>
</linearGradient>
<radialGradient id="paint3_radial_2018_122" cx="0" cy="0" r="1" gradientUnits="userSpaceOnUse" gradientTransform="translate(457.162 457.162) scale(190.837)">
<stop stop-color="#D7F2FF"/>
<stop offset="1" stop-color="#97DEFF"/>
</radialGradient>
<clipPath id="clip0_2018_122">
<rect width="1024" height="1024" fill="white"/>
</clipPath>
</defs>
</svg>
